<?xml version="1.0" encoding="UTF-8"?>
<svg version="1.1" xmlns="http://www.w3.org/2000/svg" width="1500" height="556">
<path d="M0 0 C15.35980277 -0.23402653 30.71952317 -0.41014946 46.08071041 -0.51812172 C53.21400125 -0.56959802 60.34618183 -0.63972088 67.47875977 -0.75439453 C73.69860827 -0.8543458 79.91765256 -0.91864609 86.13828188 -0.94088495 C89.43003683 -0.95387871 92.71896695 -0.98951931 96.01011467 -1.05730057 C99.69293309 -1.13011855 103.37101867 -1.13988285 107.05444336 -1.13525391 C108.67501396 -1.18918304 108.67501396 -1.18918304 110.32832336 -1.24420166 C115.08959658 -1.17963192 117.9036074 -0.90830369 121.6447773 2.19105911 C123.92690203 4.70452824 125.98790812 7.26785707 128 10 C128.88381397 11.06299174 129.77306589 12.12153184 130.671875 13.171875 C132.11381716 14.96075061 133.54680859 16.75686358 134.97265625 18.55859375 C136.85033989 20.9488854 136.85033989 20.9488854 138.74609375 22.53515625 C140.1875 23.8125 140.1875 23.8125 142 27 C141.86914062 29.47509766 141.86914062 29.47509766 141.34375 32.6015625 C141.14225342 33.85396729 140.94075684 35.10637207 140.7331543 36.39672852 C140.55675919 37.47665573 140.55675919 37.47665573 140.37680054 38.57839966 C139.95547501 41.28615067 139.58766713 43.9982649 139.22583008 46.71459961 C138.492608 52.19788742 137.67751117 57.66520594 136.82788086 63.1315918 C136.4845268 65.41731164 136.16415277 67.70660265 135.86694336 69.9987793 C132.9692769 92.12454375 132.9692769 92.12454375 123.57421875 99.79296875 C121.11788754 101.6476871 118.58362151 103.32986759 116 105 C114.8093052 105.8528108 113.62446874 106.71387902 112.4465332 107.58422852 C110.57996908 108.95619723 108.69337718 110.30165583 106.78125 111.609375 C104.46202678 114.72201669 105.04860646 116.64946289 105.54919434 120.36480713 C106.36832037 125.15302355 107.51571981 129.85012376 108.6875 134.5625 C109.08134888 136.17125 109.08134888 136.17125 109.4831543 137.8125 C110.03520139 140.06203037 110.5900137 142.31088377 111.14746094 144.55908203 C112.00385153 148.0155451 112.8502105 151.47435526 113.6953125 154.93359375 C114.23378792 157.12254034 114.77283002 159.31134762 115.3125 161.5 C115.56668701 162.53842041 115.82087402 163.57684082 116.08276367 164.64672852 C116.31970947 165.59862061 116.55665527 166.5505127 116.80078125 167.53125 C117.11269409 168.79291992 117.11269409 168.79291992 117.4309082 170.08007812 C117.83098903 171.98998795 117.83098903 171.98998795 119 173 C119.15369018 172.12663089 119.30738035 171.25326178 119.46572781 170.35342693 C123.20211554 149.12172188 126.94101677 127.8904608 130.68273067 106.65969372 C132.49211898 96.39273171 134.3006501 86.12562008 136.10717773 75.8581543 C137.681387 66.91109112 139.25718987 57.96431036 140.83492285 49.01786786 C141.67058791 44.27895016 142.50544356 39.53989303 143.33839226 34.80049706 C144.12191004 30.34250565 144.90755298 25.88489409 145.69484901 21.42756844 C145.98387853 19.78899901 146.27212191 18.15029069 146.55953217 16.51143646 C146.95119729 14.27878796 147.34565389 12.04665038 147.74082947 9.81462097 C147.96113799 8.56374789 148.18144651 7.31287481 148.40843105 6.02409649 C149 3 149 3 150 0 C163.36930377 -0.30187443 176.73779069 -0.53252747 190.10981464 -0.67355824 C196.31996256 -0.74126588 202.52777092 -0.83301345 208.73657227 -0.98071289 C214.73442047 -1.12249289 220.73002646 -1.1998001 226.72942162 -1.23340416 C229.01217126 -1.2573335 231.29480482 -1.30406775 233.5765934 -1.37449074 C252.3924957 -1.93184469 252.3924957 -1.93184469 257.79989624 2.83203125 C260.69902056 5.95145581 262.83788132 9.34169971 265 13 C266.10059364 14.42800165 267.21876698 15.84322586 268.375 17.2265625 C269.25273989 18.35725337 270.12791213 19.4899441 271 20.625 C274.05253266 24.75806079 274.05253266 24.75806079 277.65478516 28.38183594 C279 30 279 30 279.15771484 32.19384766 C279.05152832 33.05026855 278.9453418 33.90668945 278.8359375 34.7890625 C278.71702148 35.7677832 278.59810547 36.74650391 278.47558594 37.75488281 C277.61227491 43.64560669 276.66496796 49.51279968 275.625 55.375 C275.41617187 56.61894531 275.20734375 57.86289063 274.9921875 59.14453125 C274.78078125 60.34207031 274.569375 61.53960937 274.3515625 62.7734375 C274.16416504 63.85028809 273.97676758 64.92713867 273.78369141 66.03662109 C272.26685472 71.77224841 268.99397908 75.23963077 264.8125 79.3125 C263.91144531 80.19550781 263.01039063 81.07851563 262.08203125 81.98828125 C261.39496094 82.65214844 260.70789063 83.31601562 260 84 C261.50768758 87.36330307 263.47383585 89.97301294 265.8125 92.8125 C267.22356959 94.52925585 268.61816092 96.25962969 270 98 C270.44036591 98.4965509 270.88073181 98.99310181 271.33444214 99.50469971 C273.92399215 102.65357288 275.40268811 104.84891294 275.0168457 109.00756836 C274.76734895 110.45731017 274.4854002 111.90174221 274.17578125 113.33984375 C274.03553024 114.10680069 273.89527924 114.87375763 273.7507782 115.66395569 C273.2995516 118.09483105 272.80690622 120.51507811 272.3125 122.9375 C271.99787384 124.59127094 271.6859953 126.24556711 271.37695312 127.90039062 C270.61629726 131.94036553 269.81841445 135.97134613 269 140 C269.51216064 138.96782349 269.51216064 138.96782349 270.03466797 137.91479492 C271.64580068 134.67120965 273.26040399 131.42936262 274.875 128.1875 C275.41125 127.10662109 275.9475 126.02574219 276.5 124.91210938 C279.83442023 118.22388274 283.2530404 111.58727117 286.74609375 104.98046875 C291.83051999 95.36302888 296.78940806 85.68399167 301.72741699 75.99072266 C304.24096972 71.05734218 306.75909732 66.12629833 309.27734375 61.1953125 C309.7723941 60.22587708 310.26744446 59.25644165 310.77749634 58.25762939 C320.73062569 38.77539362 330.8279134 19.36876763 341 0 C352.55 0 364.1 0 376 0 C379.61098996 17.40611277 382.63166551 34.90005426 385.62280059 52.42037702 C386.33539225 56.58996337 387.05154627 60.7589377 387.76741028 64.92796326 C389.42363701 74.57667832 391.07593104 84.22606453 392.72757721 93.87556458 C394.84054811 106.21984602 396.95465392 118.56393098 399.07373601 130.90716499 C399.92362456 135.85847718 400.771172 140.81018266 401.61689985 145.76220715 C402.14101739 148.8283645 402.66706074 151.89418915 403.19362831 154.95992661 C403.43753931 156.38242922 403.68063606 157.80507171 403.92286682 159.2278614 C404.25295207 161.16603498 404.58619096 163.10367069 404.91960144 165.04127502 C405.10521731 166.1260592 405.29083319 167.21084337 405.48207378 168.32849979 C405.95688912 171.08714603 405.95688912 171.08714603 407 174 C407.15369018 173.12755268 407.30738035 172.25510536 407.46572781 171.35622025 C411.20309387 150.14102715 414.94203338 128.92611188 418.68273067 107.71150589 C420.49165459 97.45233824 422.30004317 87.19307676 424.10717773 76.93359375 C425.68202551 67.99285961 427.25787137 59.05230206 428.83492285 50.11195636 C429.67014733 45.37684234 430.5048671 40.64164058 431.33839226 35.90622711 C432.1226461 31.45082558 432.90823236 26.99566107 433.69484901 22.54067612 C433.98357793 20.9040864 434.27181649 19.26741009 434.55953217 17.63064194 C434.95198196 15.39848523 435.34618387 13.16664486 435.74082947 10.93487549 C435.96113799 9.6849242 436.18144651 8.43497292 436.40843105 7.14714432 C436.85932009 4.74841652 437.40803438 2.36786247 438 0 C443.28 0 448.56 0 454 0 C451.1229806 16.40688108 448.24511197 32.81361289 445.36620235 49.22016239 C444.02863501 56.84291041 442.69133607 64.4657053 441.35473633 72.08862305 C440.18586787 78.75492851 439.01642742 85.42113338 437.84637743 92.08723158 C437.1277232 96.18172627 436.40951011 100.27629768 435.6921128 104.37101281 C431.85420489 126.25841266 427.92577878 148.12780395 424 170 C455.02 170 486.04 170 518 170 C527.9 113.9 537.8 57.8 548 0 C551.3 0 554.6 0 558 0 C552.60044076 33.19601078 546.74236168 66.31418384 540.9352113 99.44068277 C539.81423222 105.83648672 538.69611168 112.23278812 537.5785777 118.6291948 C536.4896576 124.8612037 535.39896975 131.09290145 534.30685741 137.32435173 C533.65921679 141.01982711 533.01225426 144.71541786 532.36704063 148.41131783 C531.65441996 152.49284752 530.93811597 156.57372223 530.22143555 160.65454102 C530.01003937 161.86824875 529.79864319 163.08195648 529.58084106 164.33244324 C529.28887596 165.98969925 529.28887596 165.98969925 528.99101257 167.68043518 C528.82274302 168.64119744 528.65447348 169.60195971 528.48110485 170.59183598 C528 173 528 173 527 176 C559.67 176 592.34 176 626 176 C625.67 178.97 625.34 181.94 625 185 C545.47 185 465.94 185 384 185 C381.75 176 381.75 176 381.22216797 172.41992188 C381.03980591 171.20320801 381.03980591 171.20320801 380.85375977 169.96191406 C380.67478149 168.72779785 380.67478149 168.72779785 380.4921875 167.46875 C380.37625244 166.69047852 380.26031738 165.91220703 380.14086914 165.11035156 C379.71458983 162.24087325 379.29518394 159.37037721 378.875 156.5 C377.92625 150.065 376.9775 143.63 376 137 C349.93 137 323.86 137 297 137 C296.34 138.98 295.68 140.96 295 143 C294.31544546 144.52776146 293.59752643 146.04106191 292.84521484 147.53662109 C292.42493011 148.37703949 292.00464539 149.21745789 291.57162476 150.08334351 C291.12259796 150.97107452 290.67357117 151.85880554 290.2109375 152.7734375 C289.51600693 154.1590538 289.51600693 154.1590538 288.80703735 155.57266235 C287.33345163 158.5086818 285.85431302 161.44186277 284.375 164.375 C283.37202754 166.37090872 282.36941928 168.3670005 281.3671875 170.36328125 C278.91634666 175.24467451 276.45801035 180.12218671 274 185 C265.09 185 256.18 185 247 185 C248.49251706 180.52244882 250.00247052 176.77777506 252.125 172.625 C252.93324219 171.03558594 252.93324219 171.03558594 253.7578125 169.4140625 C254.37269531 168.21910156 254.37269531 168.21910156 255 167 C249.28597302 171.06574997 244.13937379 175.50952931 239.03808594 180.30395508 C234.68984719 184.37387822 232.8795286 185.125106 226.95101929 185.12025452 C225.66090439 185.12162918 224.37078949 185.12300385 223.0415802 185.12442017 C221.60372902 185.12088077 220.16587807 185.11724596 218.72802734 185.11352539 C217.22036236 185.11324345 215.71269725 185.11340139 214.20503235 185.1139679 C210.10402995 185.11425559 206.00305661 185.10836332 201.90206099 185.10139394 C197.6192486 185.09515581 193.33643561 185.09455624 189.05361938 185.09336853 C180.93988143 185.09025658 172.82615691 185.08204501 164.71242487 185.07201904 C155.47676403 185.0608537 146.24110256 185.05534639 137.00543666 185.05032361 C118.00361682 185.03986229 99.00180949 185.02226546 80 185 C79.36289864 182.62685905 78.72689099 180.25343375 78.0914917 177.87983704 C77.91297606 177.21532925 77.73446041 176.55082147 77.5505352 175.86617708 C75.97478233 169.97409016 74.55695174 164.05243257 73.203125 158.10546875 C72.9646283 157.06602615 72.72613159 156.02658356 72.48040771 154.9556427 C71.98515255 152.79421172 71.49119749 150.63248243 70.99853516 148.47045898 C70.24100894 145.1480666 69.47818821 141.82691928 68.71484375 138.50585938 C68.2314603 136.3933002 67.74837601 134.28067254 67.265625 132.16796875 C67.03756165 131.17540573 66.80949829 130.18284271 66.57452393 129.16020203 C66.26354767 127.79155754 66.26354767 127.79155754 65.94628906 126.39526367 C65.67126556 125.19071785 65.67126556 125.19071785 65.39068604 123.96183777 C65 122 65 122 65 120 C50.15 120.33 35.3 120.66 20 121 C19.21753906 125.53621094 18.43507813 130.07242188 17.62890625 134.74609375 C17.13260169 137.61270802 16.63606282 140.47927768 16.13867188 143.34570312 C15.34851924 147.89942528 14.55925763 152.45328977 13.77514648 157.00805664 C13.14321153 160.6785336 12.50741129 164.34832147 11.86887932 168.01765633 C11.62546781 169.42050196 11.38347065 170.82359374 11.14288521 172.2269268 C10.80672076 174.18634679 10.46514329 176.14483582 10.12329102 178.10327148 C9.93009781 179.22023911 9.7369046 180.33720673 9.53785706 181.48802185 C9 184 9 184 8 185 C5.04294679 185.08868299 2.10934944 185.11520296 -0.84765625 185.09765625 C-2.17729652 185.09553383 -2.17729652 185.09553383 -3.53379822 185.09336853 C-6.37673254 185.08775215 -9.21958931 185.07519691 -12.0625 185.0625 C-13.98502491 185.05748711 -15.90755104 185.05292384 -17.83007812 185.04882812 C-22.55341549 185.03777741 -27.27669458 185.02050183 -32 185 C-31.38772507 175.61719326 -29.7972258 166.45031848 -28.1484375 157.20922852 C-27.85396218 155.53930882 -27.55988554 153.86931878 -27.26617432 152.19926453 C-26.47280744 147.69492023 -25.6738061 143.1915924 -24.87366486 138.68844724 C-24.03554024 133.96634695 -23.2024059 129.24336619 -22.36865234 124.52049255 C-20.96952136 116.59913852 -19.5669846 108.67839383 -18.16210938 100.75805664 C-16.35872149 90.59090811 -14.56090629 80.4227825 -12.76486206 70.25433445 C-11.21909147 61.50303783 -9.67086789 52.75217547 -8.12220001 44.00139117 C-7.62492285 41.19097021 -7.1279651 38.3804929 -6.63104248 35.57000923 C-5.85106201 31.15957099 -5.0695552 26.74940577 -4.2868576 22.33944893 C-3.99975213 20.72058641 -3.71312544 19.10163889 -3.42700958 17.48260117 C-3.03680794 15.2751157 -2.64485693 13.06794793 -2.25244141 10.8608551 C-2.0334317 9.62519082 -1.814422 8.38952654 -1.58877563 7.11641788 C-1.13449893 4.71190936 -0.63390983 2.36173584 0 0 Z M354 22 C347.99765973 33.95842317 341.99959281 45.91897879 336.0070343 57.88230705 C333.22457888 63.43676255 330.44063403 68.99046114 327.65332031 74.54248047 C324.96552086 79.89641344 322.28158825 85.25226807 319.60037231 90.60950089 C318.57466289 92.65721273 317.54754118 94.70421777 316.51901245 96.75051498 C315.08319406 99.6077201 313.65233214 102.4673543 312.22265625 105.32763672 C311.79252228 106.18071411 311.36238831 107.0337915 310.91921997 107.91271973 C310.53216888 108.68957123 310.1451178 109.46642273 309.74633789 110.26681519 C309.40711807 110.94341124 309.06789825 111.62000729 308.71839905 112.31710625 C307.86913095 114.00159933 307.86913095 114.00159933 308 116 C329.45 116 350.9 116 373 116 C371.51233257 102.96939823 371.51233257 102.96939823 369.67138672 90.00170898 C369.55405182 89.2482016 369.43671692 88.49469421 369.31582642 87.71835327 C368.94012847 85.31045 368.55999105 82.90327346 368.1796875 80.49609375 C367.91322252 78.79407567 367.64704368 77.09201277 367.38113403 75.38990784 C366.69023034 70.97229989 365.99551773 66.55529971 365.29992676 62.13842773 C364.58690857 57.60632763 363.87760936 53.07364559 363.16796875 48.54101562 C361.78222286 39.69344684 360.3924402 30.84651753 359 22 C357.35 22 355.7 22 354 22 Z M177 28 C173.04 50.77 173.04 50.77 169 74 C176.59746389 74.27409907 184.17669585 74.53408618 191.77481842 74.67275238 C195.31357155 74.74095848 198.84816879 74.83175189 202.38452148 74.98071289 C220.07187118 76.44188033 220.07187118 76.44188033 235.63760376 69.74407959 C240.39159658 64.72219527 243.95677274 59.08979128 244.3125 52.0625 C244.39693359 51.36060547 244.48136719 50.65871094 244.56835938 49.93554688 C244.78783169 47.96398468 244.89742597 45.98108661 245 44 C245.10302429 42.56036392 245.10302429 42.56036392 245.20812988 41.09164429 C244.88300438 36.26210041 242.72229285 33.68267972 239.63989258 30.08184814 C234.63570598 26.13549189 229.21494872 26.77489414 223.09375 27.0234375 C221.76002337 27.04212207 220.42622744 27.05634098 219.09240723 27.0663147 C215.60528314 27.10424532 212.12241922 27.20221878 208.63696289 27.31335449 C205.07107212 27.41622064 201.50446233 27.46199296 197.9375 27.51171875 C190.95458862 27.61321455 183.98332566 27.80885057 177 28 Z M35 32 C33.71071416 38.86709385 32.42985204 45.73572065 31.15478516 52.60546875 C30.72019322 54.9414409 30.28368673 57.27705771 29.84521484 59.61230469 C29.21466331 62.97238656 28.59104778 66.3336935 27.96875 69.6953125 C27.77188599 70.73615997 27.57502197 71.77700745 27.37219238 72.84939575 C26.49473468 77.62445856 25.73817585 82.11988882 26 87 C33.7732629 87.22942273 41.54564401 87.38631292 49.3215332 87.49438477 C51.96281558 87.53946446 54.60387564 87.60074813 57.24438477 87.67895508 C61.05540952 87.7889507 64.86345111 87.83935299 68.67578125 87.87890625 C69.84393875 87.92535782 71.01209625 87.97180939 72.21565247 88.01966858 C80.42226632 88.02464807 84.73125646 85.80595358 90.87869263 80.4173584 C94.25985085 76.56432355 95.04248956 72.93071848 95.5625 67.9375 C95.68979492 67.02645508 95.81708984 66.11541016 95.94824219 65.17675781 C96.20204427 63.33168771 96.4378793 61.48404788 96.65478516 59.63427734 C96.97608645 57.18248031 97.42502901 54.80983221 97.94921875 52.39453125 C98.21701857 51.01318974 98.48400007 49.63168923 98.75 48.25 C99.11351562 46.46335937 99.11351562 46.46335937 99.484375 44.640625 C98.83529855 39.76208262 96.86582167 37.49539364 93.56915283 33.93551636 C88.78821536 30.33371324 83.73685714 30.89472651 77.96875 31.12109375 C76.73709106 31.13382828 75.50543213 31.14656281 74.2364502 31.15968323 C70.32225415 31.20986085 66.41278218 31.32274366 62.5 31.4375 C59.83860952 31.48776531 57.17726341 31.52372514 54.515625 31.56054688 C48.00881882 31.65950253 41.50474689 31.80988704 35 32 Z M164 102 C162.71345163 109.18908887 161.43225347 116.37911635 160.15478516 123.56982422 C159.71949675 126.01633334 159.28298023 128.46262429 158.84521484 130.90869141 C158.21649994 134.42293685 157.59219368 137.9379411 156.96875 141.453125 C156.77188599 142.5480426 156.57502197 143.64296021 156.37219238 144.77105713 C156.10191223 146.30219147 156.10191223 146.30219147 155.82617188 147.86425781 C155.66628784 148.76138489 155.50640381 149.65851196 155.3416748 150.58282471 C154.90669228 153.25323725 154.90669228 153.25323725 155 157 C163.51077058 157.25649216 172.01989026 157.45111403 180.53358746 157.56993389 C184.48839345 157.62700615 188.44052958 157.70420435 192.39379883 157.82983398 C196.21959319 157.95063174 200.04284534 158.01537909 203.87040138 158.04364967 C205.31980196 158.06375426 206.76908543 158.10301376 208.21738243 158.16303062 C217.89399006 158.54754869 223.79470654 156.65393167 231.00664806 150.3194685 C235.64731704 145.88901588 237.15772003 141.81355321 237.6875 135.5625 C237.92417685 133.72261734 238.16115399 131.88277327 238.3984375 130.04296875 C238.4922168 129.1720459 238.58599609 128.30112305 238.68261719 127.40380859 C239.09194467 124.30362523 239.9711957 121.3824663 240.8125 118.375 C241.51638393 113.52709102 240.36675054 111.14830659 237.49633789 107.23120117 C233.49248059 102.61405859 230.8238463 101.20796219 224.73608398 100.7512207 C221.89957011 100.71288476 219.07997258 100.81184707 216.24609375 100.92578125 C214.73443805 100.94633392 213.22270836 100.96197489 211.71095276 100.97294617 C207.75846022 101.0146716 203.81051467 101.12244722 199.85980225 101.24468994 C195.8179679 101.35783727 191.77538814 101.40758545 187.73242188 101.46289062 C179.81954257 101.58037168 171.91033896 101.76773868 164 102 Z " fill="#00FECC" transform="translate(728,185)"/>
<path d="M0 0 C3.88931511 0.03308557 7.77846704 0.0151063 11.66786432 0.00496149 C18.18915771 -0.00403994 24.70929605 0.02741787 31.23033381 0.08354425 C38.75305689 0.14779565 46.27370797 0.14754368 53.79657972 0.11311471 C61.06478022 0.08132781 68.33222609 0.09487598 75.60039377 0.12898874 C78.68092996 0.14267757 81.76085641 0.14072088 84.84138346 0.12589884 C88.46869624 0.11050925 92.09366426 0.13501541 95.72057772 0.18959665 C97.67497322 0.20979894 99.62965146 0.19106836 101.58404779 0.1709466 C107.75624678 0.30438271 111.49507472 0.65794787 115.97377253 5.12532282 C117.11426934 6.50294523 118.24726716 7.88681724 119.37193537 9.27739191 C120.6823405 10.46975397 122.01320843 11.64040027 123.37193537 12.77739191 C124.02033381 13.3484466 124.66873224 13.91950129 125.33677912 14.50786066 C126.76269913 15.74767211 128.2160091 16.95635172 129.68834162 18.14067316 C130.80015802 19.10553644 130.80015802 19.10553644 131.93443537 20.08989191 C132.95730646 20.93487238 132.95730646 20.93487238 134.00084162 21.79692316 C137.60903852 28.32457282 133.51491934 39.77257572 132.27061701 46.80790949 C131.95334902 48.62684717 131.95334902 48.62684717 131.62967157 50.48253107 C131.05391122 53.77813015 130.47487431 57.07311709 129.89396453 60.36781001 C129.40800183 63.12629883 128.92425445 65.88517436 128.44046253 68.64404458 C127.29934822 75.15092578 126.15436008 81.65711708 125.00694513 88.16288996 C123.82499842 94.8648709 122.64977332 101.56800629 121.4777866 108.27173549 C120.46850511 114.04336081 119.45501577 119.81423648 118.43816704 125.58453339 C117.83206515 129.02423763 117.22756196 132.46420312 116.62714052 135.90490389 C115.95843821 139.73564163 115.28096373 143.56479917 114.60264826 147.39384699 C114.40569361 148.52900248 114.20873896 149.66415796 114.00581598 150.8337121 C113.81940042 151.87790308 113.63298487 152.92209406 113.44092035 153.99792719 C113.28182719 154.90212302 113.12273403 155.80631886 112.95881987 156.73791456 C111.8657218 161.46780227 110.72105953 164.48446411 106.69615412 167.29301691 C105.9491424 167.8228216 105.20213068 168.35262629 104.43248224 168.89848566 C103.64937677 169.43602472 102.86627131 169.97356379 102.05943537 170.52739191 C101.31886896 171.04946222 100.57830256 171.57153254 99.81529474 172.10942316 C98.25989939 173.20254606 96.6871693 174.27135806 95.09930658 175.31675959 C92.33620652 177.18896477 92.33620652 177.18896477 90.13479853 179.53319025 C79.10807171 189.49136916 64.13778449 187.85218618 50.13730907 187.94736338 C47.83276836 187.96501237 45.52864512 187.99413962 43.22427225 188.02687311 C35.14457129 188.13976294 27.06614885 188.20117863 18.9857049 188.21977472 C11.51752294 188.23849497 4.05802522 188.37705115 -3.40746772 188.57105398 C-9.86860932 188.73292003 -16.32691556 188.80336334 -22.79006398 188.80746031 C-26.62901316 188.8116301 -30.45900127 188.85026044 -34.29580069 188.98427057 C-49.15247146 189.47178063 -61.74550459 188.91939089 -73.12789106 178.35794306 C-74.17481557 177.3277336 -75.21361193 176.28919372 -76.24378729 175.24223566 C-76.74346101 174.73941128 -77.24313472 174.23658689 -77.75795007 173.71852541 C-85.17450811 166.01382471 -85.17450811 166.01382471 -86.04927111 160.73613596 C-85.83147419 158.13345694 -85.29701836 155.80084045 -84.62806463 153.27739191 C-84.30135501 151.32291062 -83.98811763 149.36614509 -83.68606329 147.40770197 C-83.30342756 145.22264534 -82.91676113 143.03829193 -82.52674627 140.85454035 C-82.31523428 139.65327509 -82.10372229 138.45200983 -81.88580084 137.21434259 C-81.31006489 133.94965779 -80.73099892 130.685601 -80.15009379 127.42183447 C-79.66402305 124.68831455 -79.18031264 121.9543791 -78.69659179 119.22044253 C-77.55545685 112.77105117 -76.41051988 106.32234299 -75.2630744 99.8740716 C-74.08165032 93.23451258 -72.90627605 86.59390297 -71.73391587 79.95273805 C-70.72402011 74.23300487 -69.71059196 68.51390546 -68.6942963 62.79530597 C-68.08866527 59.38735068 -67.48430735 55.97918276 -66.88326979 52.57041407 C-66.21359804 48.77357348 -65.53654209 44.97807008 -64.85877752 41.18266535 C-64.66182287 40.06045588 -64.46486822 38.9382464 -64.26194525 37.78203058 C-61.89026758 24.58683889 -61.89026758 24.58683889 -59.06263494 21.65336847 C-58.45000799 21.24570246 -57.83738104 20.83803644 -57.20618963 20.41801691 C-56.50880682 19.94106379 -55.81142401 19.46411066 -55.09290838 18.97270441 C-54.36200994 18.49575129 -53.63111151 18.01879816 -52.87806463 17.52739191 C-51.46590122 16.57531187 -50.05447088 15.62214383 -48.64368963 14.66801691 C-47.50001425 13.94245096 -47.50001425 13.94245096 -46.33323431 13.20222712 C-43.54482627 11.3371196 -43.54482627 11.3371196 -41.19828558 8.80299616 C-29.60344115 -1.87172948 -14.81153897 -0.15872727 0 0 Z M28.37193537 36.27739191 C25.55980398 50.06863526 22.94719949 63.8851487 20.48131037 77.74223566 C20.12836256 79.71950554 19.77535431 81.69676464 19.42228937 83.67401361 C18.69143004 87.77029886 17.96229128 91.86688598 17.23424006 95.96367121 C16.3016582 101.20970105 15.36309127 106.45464161 14.42310953 111.69934988 C13.69613415 115.76083831 12.97305911 119.82301389 12.25109339 123.88539553 C11.90640579 125.82131936 11.56032589 127.75699584 11.21280909 129.69241381 C10.73018574 132.38271038 10.25301645 135.07391988 9.77720881 137.76542902 C9.63388117 138.55759821 9.49055353 139.3497674 9.34288263 140.16594172 C8.67438401 143.98065278 8.37193537 147.37565764 8.37193537 151.27739191 C12.66193537 151.27739191 16.95193537 151.27739191 21.37193537 151.27739191 C26.41179911 124.21998928 31.3187931 97.14102062 36.06187296 70.03012705 C36.43496711 67.89935506 36.80904682 65.76875812 37.18336725 63.63820124 C37.88630552 59.63570154 38.58457938 55.63240333 39.28209162 51.62895441 C39.49416254 50.42176249 39.70623346 49.21457056 39.92473078 47.97079706 C40.11621698 46.86621653 40.30770319 45.76163599 40.50499201 44.62358332 C40.67325998 43.65885096 40.84152796 42.6941186 41.01489496 41.70015192 C41.44483268 39.19088899 41.44483268 39.19088899 41.37193537 36.27739191 C37.08193537 36.27739191 32.79193537 36.27739191 28.37193537 36.27739191 Z " fill="#FEFEFE" transform="translate(252.62806463241577,183.72260808944702)"/>
<path d="M0 0 C23.1 0 46.2 0 70 0 C68.79062732 31.006352 68.79062732 31.006352 68.186059 46.37466431 C67.85976465 54.67029128 67.53424423 62.9659462 67.21166992 71.26171875 C66.95618145 77.83215314 66.69881548 84.40251094 66.43925327 90.97278571 C66.30205391 94.44732383 66.16575518 97.9218917 66.03170967 101.39655304 C65.88154044 105.28824778 65.72717697 109.17977038 65.57250977 113.07128906 C65.52935135 114.20633881 65.48619293 115.34138855 65.44172668 116.51083374 C65.15185931 123.69442465 64.65517226 130.84052132 64 138 C67.3 138 70.6 138 74 138 C74.12336731 136.8367067 74.24673462 135.67341339 74.37384033 134.47486877 C74.89381799 130.3399179 75.85255948 126.39852417 77.01855469 122.40209961 C77.32429759 121.32727026 77.32429759 121.32727026 77.63621712 120.2307272 C78.30926558 117.86965346 78.99058519 115.5110513 79.671875 113.15234375 C80.15177934 111.4740892 80.63110653 109.79566952 81.1098938 108.11709595 C82.12516308 104.56142626 83.14387304 101.00676923 84.16546631 97.45291138 C86.54483395 89.17519072 88.90770083 80.89275577 91.27152634 72.61058617 C92.05365129 69.87081732 92.8364674 67.13124652 93.61929321 64.39167786 C98.333819 47.88203001 102.92938944 31.34123609 107.45605469 14.77905273 C107.69693817 13.90018402 107.93782166 13.02131531 108.18600464 12.11581421 C108.62334663 10.51913683 109.05883159 8.92194897 109.49197388 7.3241272 C110.88835057 2.22329887 110.88835057 2.22329887 112 0 C136.09 0 160.18 0 185 0 C182.28614487 32.56626155 177.10981683 62.49325719 160.03027344 90.62744141 C157.12388346 95.45534799 154.47772213 100.41152967 151.8125 105.375 C150.86170708 107.10212992 149.90988218 108.82869212 148.95703125 110.5546875 C145.53046409 116.81411543 142.26771306 123.15660925 139 129.5 C134.21272426 138.7910555 129.31949357 148.01103706 124.28198242 157.16870117 C120.44102789 164.158107 116.70834251 171.19990923 113.03222656 178.27734375 C110.10188595 183.89811405 110.10188595 183.89811405 109 185 C105.98649762 185.09529612 102.99595894 185.12551904 99.98217773 185.11352539 C99.03593536 185.11367142 98.08969299 185.11381744 97.11477661 185.1139679 C93.97102608 185.11326836 90.82733399 185.10547409 87.68359375 185.09765625 C85.51025932 185.09579221 83.33692448 185.09436824 81.16358948 185.09336853 C75.43098805 185.08954221 69.69841177 185.07971097 63.96582031 185.06866455 C58.12109721 185.05845287 52.27637007 185.05387143 46.43164062 185.04882812 C34.954416 185.0380888 23.47721009 185.02101102 12 185 C8.44271815 166.05937386 4.91067899 147.11413128 1.40098572 128.1646347 C1.00032344 126.00174602 0.5993554 123.83891416 0.19836426 121.67608643 C-1.23750874 113.92798048 -2.66658448 106.1786827 -4.08127499 98.42667866 C-4.69215696 95.07941935 -5.30555719 91.73267454 -5.9256897 88.38711548 C-6.6182294 84.64223528 -7.30059317 80.89563462 -7.98046875 77.1484375 C-8.28904312 75.49739769 -8.28904312 75.49739769 -8.60385132 73.81300354 C-10.57140002 62.84151907 -9.84447307 53.81683226 -7.8125 42.87109375 C-7.61591797 41.7792981 -7.41933594 40.68750244 -7.21679688 39.56262207 C-6.48643332 35.5193575 -5.74242619 31.47856702 -5 27.4375 C-3.35 18.383125 -1.7 9.32875 0 0 Z " fill="#FEFEFE" transform="translate(395,185)"/>
<path d="M0 0 C46.86 0 93.72 0 142 0 C141.12072929 7.9134364 139.91079137 15.61365417 138.5 23.4375 C138.16162109 25.3546582 138.16162109 25.3546582 137.81640625 27.31054688 C137.59855469 28.52677734 137.38070312 29.74300781 137.15625 30.99609375 C136.85944336 32.65402954 136.85944336 32.65402954 136.55664062 34.34545898 C136 37 136 37 135 39 C103.98 39 72.96 39 41 39 C40.67 42.63 40.34 46.26 40 50 C38.68 57.26 37.36 64.52 36 72 C63.72 72 91.44 72 120 72 C118.87377821 83.26221793 118.87377821 83.26221793 118.0625 87.90234375 C117.80339844 89.39024414 117.80339844 89.39024414 117.5390625 90.90820312 C117.27222656 92.40770508 117.27222656 92.40770508 117 93.9375 C116.73316406 95.47760742 116.73316406 95.47760742 116.4609375 97.04882812 C115.13455704 104.59632888 115.13455704 104.59632888 114 108 C85.95 108 57.9 108 29 108 C28.34 113.28 27.68 118.56 27 124 C25.68 131.26 24.36 138.52 23 146 C53.69 146 84.38 146 116 146 C114.80918818 159.09893 112.31216485 172.05187683 110 185 C63.14 185 16.28 185 -32 185 C-32 179.7516637 -31.73046127 175.60687561 -30.82984924 170.534729 C-30.70396469 169.81624306 -30.57808013 169.09775712 -30.44838089 168.35749888 C-30.02800447 165.96677986 -29.59909981 163.57767386 -29.17016602 161.18847656 C-28.86586408 159.46828567 -28.56208525 157.74800217 -28.25878906 156.02763367 C-27.4357075 151.36792119 -26.60515988 146.70956777 -25.7731297 142.05144596 C-24.9033799 137.17553761 -24.04010001 132.29848377 -23.17601013 127.42156982 C-21.72481841 119.23654133 -20.26907838 111.05233243 -18.81030273 102.86865234 C-17.1228512 93.40196322 -15.44112715 83.93427145 -13.76278359 74.4659636 C-11.97622722 64.38723602 -10.18619989 54.30912752 -8.39477038 44.23126507 C-7.87836697 41.3250901 -7.36253765 38.41881367 -6.84680367 35.51251984 C-6.03725669 30.95179295 -5.22533492 26.39149496 -4.41155243 21.83152199 C-4.11286445 20.1558563 -3.81494613 18.48005322 -3.51784325 16.80410576 C-3.1130435 14.5214683 -2.70546182 12.23934507 -2.2971344 9.95733643 C-2.06945153 8.67868336 -1.84176867 7.40003029 -1.60718632 6.08263016 C-1 3 -1 3 0 0 Z " fill="#01FECC" transform="translate(584,185)"/>
<path d="M0 0 C15.35980277 -0.23402653 30.71952317 -0.41014946 46.08071041 -0.51812172 C53.21400125 -0.56959802 60.34618183 -0.63972088 67.47875977 -0.75439453 C73.69860827 -0.8543458 79.91765256 -0.91864609 86.13828188 -0.94088495 C89.43003683 -0.95387871 92.71896695 -0.98951931 96.01011467 -1.05730057 C99.69293309 -1.13011855 103.37101867 -1.13988285 107.05444336 -1.13525391 C108.67501396 -1.18918304 108.67501396 -1.18918304 110.32832336 -1.24420166 C115.08959658 -1.17963192 117.9036074 -0.90830369 121.6447773 2.19105911 C123.92690203 4.70452824 125.98790812 7.26785707 128 10 C128.88381397 11.06299174 129.77306589 12.12153184 130.671875 13.171875 C132.11381716 14.96075061 133.54680859 16.75686358 134.97265625 18.55859375 C136.85033989 20.9488854 136.85033989 20.9488854 138.74609375 22.53515625 C140.1875 23.8125 140.1875 23.8125 142 27 C141.86914062 29.47509766 141.86914062 29.47509766 141.34375 32.6015625 C141.14225342 33.85396729 140.94075684 35.10637207 140.7331543 36.39672852 C140.55675919 37.47665573 140.55675919 37.47665573 140.37680054 38.57839966 C139.95547501 41.28615067 139.58766713 43.9982649 139.22583008 46.71459961 C138.492608 52.19788742 137.67751117 57.66520594 136.82788086 63.1315918 C136.4845268 65.41731164 136.16415277 67.70660265 135.86694336 69.9987793 C132.9692769 92.12454375 132.9692769 92.12454375 123.57421875 99.79296875 C121.11794571 101.64764317 118.58449449 103.33125126 116 105 C108.84145058 109.43143692 108.84145058 109.43143692 104.4453125 116.05859375 C104.59733582 118.67634491 104.59733582 118.67634491 106 123 C106.99 127.62 107.98 132.24 109 137 C95.8 137.33 82.6 137.66 69 138 C67.68 132.06 66.36 126.12 65 120 C50.15 120.33 35.3 120.66 20 121 C19.21753906 125.53621094 18.43507813 130.07242188 17.62890625 134.74609375 C17.13260169 137.61270802 16.63606282 140.47927768 16.13867188 143.34570312 C15.34851924 147.89942528 14.55925763 152.45328977 13.77514648 157.00805664 C13.14321153 160.6785336 12.50741129 164.34832147 11.86887932 168.01765633 C11.62546781 169.42050196 11.38347065 170.82359374 11.14288521 172.2269268 C10.80672076 174.18634679 10.46514329 176.14483582 10.12329102 178.10327148 C9.93009781 179.22023911 9.7369046 180.33720673 9.53785706 181.48802185 C9 184 9 184 8 185 C5.04294679 185.08868299 2.10934944 185.11520296 -0.84765625 185.09765625 C-2.17729652 185.09553383 -2.17729652 185.09553383 -3.53379822 185.09336853 C-6.37673254 185.08775215 -9.21958931 185.07519691 -12.0625 185.0625 C-13.98502491 185.05748711 -15.90755104 185.05292384 -17.83007812 185.04882812 C-22.55341549 185.03777741 -27.27669458 185.02050183 -32 185 C-31.38772507 175.61719326 -29.7972258 166.45031848 -28.1484375 157.20922852 C-27.85396218 155.53930882 -27.55988554 153.86931878 -27.26617432 152.19926453 C-26.47280744 147.69492023 -25.6738061 143.1915924 -24.87366486 138.68844724 C-24.03554024 133.96634695 -23.2024059 129.24336619 -22.36865234 124.52049255 C-20.96952136 116.59913852 -19.5669846 108.67839383 -18.16210938 100.75805664 C-16.35872149 90.59090811 -14.56090629 80.4227825 -12.76486206 70.25433445 C-11.21909147 61.50303783 -9.67086789 52.75217547 -8.12220001 44.00139117 C-7.62492285 41.19097021 -7.1279651 38.3804929 -6.63104248 35.57000923 C-5.85106201 31.15957099 -5.0695552 26.74940577 -4.2868576 22.33944893 C-3.99975213 20.72058641 -3.71312544 19.10163889 -3.42700958 17.48260117 C-3.03680794 15.2751157 -2.64485693 13.06794793 -2.25244141 10.8608551 C-2.0334317 9.62519082 -1.814422 8.38952654 -1.58877563 7.11641788 C-1.13449893 4.71190936 -0.63390983 2.36173584 0 0 Z M35 32 C33.71071416 38.86709385 32.42985204 45.73572065 31.15478516 52.60546875 C30.72019322 54.9414409 30.28368673 57.27705771 29.84521484 59.61230469 C29.21466331 62.97238656 28.59104778 66.3336935 27.96875 69.6953125 C27.77188599 70.73615997 27.57502197 71.77700745 27.37219238 72.84939575 C26.49473468 77.62445856 25.73817585 82.11988882 26 87 C33.7732629 87.22942273 41.54564401 87.38631292 49.3215332 87.49438477 C51.96281558 87.53946446 54.60387564 87.60074813 57.24438477 87.67895508 C61.05540952 87.7889507 64.86345111 87.83935299 68.67578125 87.87890625 C69.84393875 87.92535782 71.01209625 87.97180939 72.21565247 88.01966858 C80.42226632 88.02464807 84.73125646 85.80595358 90.87869263 80.4173584 C94.25985085 76.56432355 95.04248956 72.93071848 95.5625 67.9375 C95.68979492 67.02645508 95.81708984 66.11541016 95.94824219 65.17675781 C96.20204427 63.33168771 96.4378793 61.48404788 96.65478516 59.63427734 C96.97608645 57.18248031 97.42502901 54.80983221 97.94921875 52.39453125 C98.21701857 51.01318974 98.48400007 49.63168923 98.75 48.25 C99.11351562 46.46335937 99.11351562 46.46335937 99.484375 44.640625 C98.83529855 39.76208262 96.86582167 37.49539364 93.56915283 33.93551636 C88.78821536 30.33371324 83.73685714 30.89472651 77.96875 31.12109375 C76.73709106 31.13382828 75.50543213 31.14656281 74.2364502 31.15968323 C70.32225415 31.20986085 66.41278218 31.32274366 62.5 31.4375 C59.83860952 31.48776531 57.17726341 31.52372514 54.515625 31.56054688 C48.00881882 31.65950253 41.50474689 31.80988704 35 32 Z " fill="#01FECC" transform="translate(728,185)"/>
<path d="M0 0 C13.36930377 -0.30187443 26.73779069 -0.53252747 40.10981464 -0.67355824 C46.31996256 -0.74126588 52.52777092 -0.83301345 58.73657227 -0.98071289 C64.73442047 -1.12249289 70.73002646 -1.1998001 76.72942162 -1.23340416 C79.01217126 -1.2573335 81.29480482 -1.30406775 83.5765934 -1.37449074 C102.3924957 -1.93184469 102.3924957 -1.93184469 107.79989624 2.83203125 C110.69902056 5.95145581 112.83788132 9.34169971 115 13 C116.10059364 14.42800165 117.21876698 15.84322586 118.375 17.2265625 C119.25273989 18.35725337 120.12791213 19.4899441 121 20.625 C124.05253266 24.75806079 124.05253266 24.75806079 127.65478516 28.38183594 C129 30 129 30 129.15771484 32.19384766 C129.05152832 33.05026855 128.9453418 33.90668945 128.8359375 34.7890625 C128.71702148 35.7677832 128.59810547 36.74650391 128.47558594 37.75488281 C127.61227491 43.64560669 126.66496796 49.51279968 125.625 55.375 C125.41617188 56.61894531 125.20734375 57.86289063 124.9921875 59.14453125 C124.78078125 60.34207031 124.569375 61.53960937 124.3515625 62.7734375 C124.16416504 63.85028809 123.97676758 64.92713867 123.78369141 66.03662109 C122.26685472 71.77224841 118.99397908 75.23963077 114.8125 79.3125 C113.91144531 80.19550781 113.01039063 81.07851563 112.08203125 81.98828125 C111.39496094 82.65214844 110.70789063 83.31601562 110 84 C111.50768758 87.36330307 113.47383585 89.97301294 115.8125 92.8125 C117.22356959 94.52925585 118.61816092 96.25962969 120 98 C120.47308594 98.48476807 120.94617188 98.96953613 121.43359375 99.46899414 C123.83600936 102.1860704 124.98586107 103.98504627 125.03735352 107.68139648 C124.63153358 110.77332151 124.04982128 113.76817915 123.375 116.8125 C123.06755859 118.38547852 123.06755859 118.38547852 122.75390625 119.99023438 C121.25486708 127.49026584 121.25486708 127.49026584 120 130 C116.56609044 131.28391751 113.11152457 131.11414329 109.484375 131.09765625 C108.23398437 131.09443359 106.98359375 131.09121094 105.6953125 131.08789062 C104.39335938 131.07951172 103.09140625 131.07113281 101.75 131.0625 C100.43257812 131.05798828 99.11515625 131.05347656 97.7578125 131.04882812 C94.50516259 131.03704316 91.25260416 131.02059011 88 131 C88.14261591 129.12475253 88.28924857 127.24981036 88.4375 125.375 C88.55931641 123.80878906 88.55931641 123.80878906 88.68359375 122.2109375 C89 119 89 119 89.70471191 116.13058472 C90.0745793 112.20932534 89.32861408 110.86415807 87.04101562 107.69970703 C83.26288826 103.34297606 80.56387661 102.2518976 74.84960938 101.77294922 C72.01038086 101.69627237 69.18288011 101.7442652 66.34375 101.8046875 C64.83059002 101.80089514 63.31743527 101.79269673 61.80432129 101.78030396 C57.84465384 101.75959154 53.88776516 101.79826517 49.9284668 101.84979248 C45.8793643 101.89182222 41.83049985 101.87703394 37.78125 101.8671875 C29.85331351 101.85620298 21.92740777 101.90802339 14 102 C13.90864525 103.19903961 13.90864525 103.19903961 13.81544495 104.42230225 C13.68939125 106.01488861 13.68939125 106.01488861 13.56079102 107.63964844 C13.47926285 108.68650818 13.39773468 109.73336792 13.31373596 110.81195068 C12.83379589 115.68889441 11.90849675 120.45102776 10.9375 125.25 C9.9784375 130.07625 9.9784375 130.07625 9 135 C-7.335 135.495 -7.335 135.495 -24 136 C-22.73425367 127.1397757 -21.42283306 118.33939889 -19.86108398 109.53442383 C-19.55581787 107.79757324 -19.55581787 107.79757324 -19.24438477 106.02563477 C-18.58056093 102.25236237 -17.91345456 98.47967955 -17.24609375 94.70703125 C-16.78038942 92.06624145 -16.31481994 89.42542815 -15.84938049 86.78459167 C-14.87851936 81.27822351 -13.90575653 75.77219385 -12.93188477 70.26635742 C-11.80664701 63.90459524 -10.68473449 57.54225311 -9.56449455 51.17960912 C-8.59882288 45.69537652 -7.63137664 40.21145914 -6.66243988 34.72780246 C-6.08525339 31.46123075 -5.50885991 28.19452303 -4.93371391 24.92759132 C-4.29451983 21.29874603 -3.65241809 17.67042723 -3.00952148 14.04223633 C-2.81989334 12.9622789 -2.6302652 11.88232147 -2.43489075 10.76963806 C-2.25970917 9.78446198 -2.08452759 8.79928589 -1.90403748 7.78425598 C-1.75269568 6.9276579 -1.60135389 6.07105982 -1.44542599 5.18850422 C-1 3 -1 3 0 0 Z M27 28 C23.04 50.77 23.04 50.77 19 74 C26.59746389 74.27409907 34.17669585 74.53408618 41.77481842 74.67275238 C45.31357155 74.74095848 48.84816879 74.83175189 52.38452148 74.98071289 C70.07187118 76.44188033 70.07187118 76.44188033 85.63760376 69.74407959 C90.39159658 64.72219527 93.95677274 59.08979128 94.3125 52.0625 C94.39693359 51.36060547 94.48136719 50.65871094 94.56835938 49.93554688 C94.78783169 47.96398468 94.89742597 45.98108661 95 44 C95.10302429 42.56036392 95.10302429 42.56036392 95.20812988 41.09164429 C94.88300438 36.26210041 92.72229285 33.68267972 89.63989258 30.08184814 C84.63570598 26.13549189 79.21494872 26.77489414 73.09375 27.0234375 C71.76002337 27.04212207 70.42622744 27.05634098 69.09240723 27.0663147 C65.60528314 27.10424532 62.12241922 27.20221878 58.63696289 27.31335449 C55.07107212 27.41622064 51.50446233 27.46199296 47.9375 27.51171875 C40.95458862 27.61321455 33.98332566 27.80885057 27 28 Z " fill="#00FECC" transform="translate(878,185)"/>
<path d="M0 0 C24.09 0 48.18 0 73 0 C70.18187924 33.81744912 64.70297507 65.21840145 46 94 C45.52167725 94.77190674 45.04335449 95.54381348 44.55053711 96.33911133 C43 98 43 98 40.93920898 98.48583984 C40.13298096 98.47762207 39.32675293 98.4694043 38.49609375 98.4609375 C37.54718262 98.45835937 36.59827148 98.45578125 35.62060547 98.453125 C34.57018066 98.42734375 33.51975586 98.4015625 32.4375 98.375 C30.78838623 98.35566406 30.78838623 98.35566406 29.10595703 98.3359375 C11.06030568 98.0255164 -6.97968047 96.9609474 -25 96 C-26.51366932 91.22553195 -25.30185155 87.36510435 -23.94213867 82.72485352 C-23.71141159 81.90470764 -23.48068451 81.08456177 -23.2429657 80.23956299 C-22.47860123 77.5328658 -21.69844706 74.83099682 -20.91796875 72.12890625 C-20.38230975 70.24497082 -19.84759935 68.36076544 -19.313797 66.4763031 C-17.90573327 61.51586741 -16.48405768 56.55943061 -15.05975342 51.6036377 C-13.9013338 47.56477295 -12.75223919 43.52328515 -11.60370922 39.48159885 C-9.2275034 31.11981922 -6.84501872 22.75981893 -4.44604492 14.40454102 C-4.2272467 13.63915512 -4.00844849 12.87376923 -3.78302002 12.08518982 C-3.57688583 11.36896454 -3.37075165 10.65273926 -3.15837097 9.91481018 C-2.89371174 8.99261861 -2.89371174 8.99261861 -2.62370586 8.05179691 C-1.80271493 5.35099393 -0.89265687 2.67797061 0 0 Z " fill="#FEFEFE" transform="translate(507,185)"/>
<path d="M0 0 C46.86 0 93.72 0 142 0 C141.12072929 7.9134364 139.91079137 15.61365417 138.5 23.4375 C138.16162109 25.3546582 138.16162109 25.3546582 137.81640625 27.31054688 C137.59855469 28.52677734 137.38070312 29.74300781 137.15625 30.99609375 C136.85944336 32.65402954 136.85944336 32.65402954 136.55664062 34.34545898 C136 37 136 37 135 39 C103.98 39 72.96 39 41 39 C40.67 42.63 40.34 46.26 40 50 C39.5380647 53.05781085 39.05409407 56.08571176 38.5 59.125 C38.30470703 60.25421875 38.30470703 60.25421875 38.10546875 61.40625 C37.12889766 66.87110234 37.12889766 66.87110234 36 68 C33.05542682 68.23230556 30.12930709 68.40429013 27.1796875 68.53515625 C25.84165573 68.59962196 25.84165573 68.59962196 24.47659302 68.66539001 C22.58183055 68.75578761 20.68695786 68.84389879 18.79199219 68.92993164 C15.90794894 69.06100257 13.02429129 69.19879671 10.140625 69.33789062 C8.29949799 69.42487845 6.45835264 69.51147911 4.6171875 69.59765625 C3.7596286 69.63826675 2.9020697 69.67887726 2.01852417 69.72071838 C-2.66029413 69.93152038 -7.31645873 70.04062698 -12 70 C-11.41168794 61.82071393 -10.21460674 53.84583901 -8.75 45.78125 C-8.53182617 44.56095093 -8.31365234 43.34065186 -8.08886719 42.08337402 C-7.63047347 39.52491081 -7.16982929 36.96684987 -6.70703125 34.40917969 C-5.99722492 30.48465655 -5.29493902 26.55888341 -4.59375 22.6328125 C-4.14627042 20.14054648 -3.69836884 17.64835619 -3.25 15.15625 C-3.03956055 13.98130981 -2.82912109 12.80636963 -2.61230469 11.5958252 C-2.41540039 10.51039429 -2.21849609 9.42496338 -2.015625 8.30664062 C-1.84321289 7.35164673 -1.67080078 6.39665283 -1.49316406 5.41271973 C-1 3 -1 3 0 0 Z " fill="#FEFEFE" transform="translate(584,185)"/>
<path d="M0 0 C23.1 0 46.2 0 70 0 C69.29141104 18.24505171 69.29141104 18.24505171 68.98242188 26.13671875 C68.77315837 31.48157543 68.56418891 36.82644226 68.35717773 42.17138672 C68.18990481 46.48976879 68.02114057 50.80809043 67.85142326 55.12637711 C67.78753541 56.75822077 67.72414833 58.39008413 67.66131783 60.02196884 C67.22449636 71.35557031 66.66137728 82.67726719 66 94 C54.3324612 94.11244439 42.73383512 93.76965603 31.08056641 93.20043945 C28.24010524 93.06201781 25.3993981 92.92999854 22.55859375 92.79882812 C13.35505193 92.36562465 4.17302496 91.88605792 -5 91 C-5.84745712 86.85692637 -6.6753688 82.71017204 -7.5 78.5625 C-7.73847656 77.39783203 -7.97695313 76.23316406 -8.22265625 75.03320312 C-8.44824219 73.88916016 -8.67382812 72.74511719 -8.90625 71.56640625 C-9.11572266 70.52427979 -9.32519531 69.48215332 -9.54101562 68.40844727 C-10.72654357 59.6046411 -9.42557648 51.56033949 -7.8125 42.87109375 C-7.61591797 41.7792981 -7.41933594 40.68750244 -7.21679688 39.56262207 C-6.48643332 35.5193575 -5.74242619 31.47856702 -5 27.4375 C-3.35 18.383125 -1.7 9.32875 0 0 Z " fill="#FEFEFE" transform="translate(395,185)"/>
<path d="M0 0 C2.63513665 0.00187076 5.27027365 0.00329154 7.90541077 0.00428772 C14.06349032 0.00735688 20.22155144 0.01550862 26.379623 0.02563721 C33.40783142 0.03693818 40.43604087 0.04234349 47.46425617 0.04733264 C61.88373247 0.05769666 76.30319348 0.07541652 90.72265625 0.09765625 C89.53184443 13.19658625 87.0348211 26.14953308 84.72265625 39.09765625 C37.86265625 39.09765625 -8.99734375 39.09765625 -57.27734375 39.09765625 C-57.27734375 34.08462688 -57.09344615 30.20622748 -56.21875 25.39453125 C-55.99767578 24.16734375 -55.77660156 22.94015625 -55.54882812 21.67578125 C-55.19788086 19.78085937 -55.19788086 19.78085937 -54.83984375 17.84765625 C-54.60974609 16.56890625 -54.37964844 15.29015625 -54.14257812 13.97265625 C-52.42787729 4.54925686 -52.42787729 4.54925686 -51.27734375 1.09765625 C-34.17622575 0.16938992 -17.12347477 -0.03631284 0 0 Z " fill="#00FECC" transform="translate(609.27734375,330.90234375)"/>
<path d="M0 0 C18.85636138 -0.42820485 37.65877534 0.78667664 56.47918701 1.79595947 C63.43362126 2.16799419 70.38849704 2.5317395 77.34340668 2.89476395 C79.029336 2.98278461 80.71525429 3.07101678 82.40116119 3.15946579 C96.59672844 3.9027756 110.7927543 4.52154709 125 5 C124.67 7.31 124.34 9.62 124 12 C125.98 20.91 125.98 20.91 128 30 C114.8 30.33 101.6 30.66 88 31 C86.68 25.06 85.36 19.12 84 13 C69.15 13.33 54.3 13.66 39 14 C38.21753906 18.53621094 37.43507813 23.07242187 36.62890625 27.74609375 C36.13260169 30.61270802 35.63606282 33.47927768 35.13867188 36.34570312 C34.34851924 40.89942528 33.55925763 45.45328977 32.77514648 50.00805664 C32.14321153 53.6785336 31.50741129 57.34832147 30.86887932 61.01765633 C30.62546781 62.42050196 30.38347065 63.82359374 30.14288521 65.2269268 C29.80672076 67.18634679 29.46514329 69.14483582 29.12329102 71.10327148 C28.93009781 72.22023911 28.7369046 73.33720673 28.53785706 74.48802185 C28 77 28 77 27 78 C24.04294679 78.08868299 21.10934944 78.11520296 18.15234375 78.09765625 C16.82270348 78.09553383 16.82270348 78.09553383 15.46620178 78.09336853 C12.62326746 78.08775215 9.78041069 78.07519691 6.9375 78.0625 C5.01497509 78.05748711 3.09244896 78.05292384 1.16992188 78.04882812 C-3.55341549 78.03777741 -8.27669458 78.02050183 -13 78 C-12.4007132 68.97294055 -10.90121274 60.15614999 -9.27734375 51.26953125 C-9.00931618 49.78317088 -8.74170985 48.29673449 -8.47450256 46.81022644 C-7.77671414 42.93473068 -7.07328217 39.06028093 -6.36859131 35.18603516 C-5.64785471 31.21774905 -4.93256874 27.24848092 -4.21679688 23.27929688 C-2.81647211 15.51857061 -1.41017212 7.75894296 0 0 Z " fill="#FDFEFE" transform="translate(709,292)"/>
<path d="M0 0 C15.35980277 -0.23402653 30.71952317 -0.41014946 46.08071041 -0.51812172 C53.21400125 -0.56959802 60.34618183 -0.63972088 67.47875977 -0.75439453 C73.69860827 -0.8543458 79.91765256 -0.91864609 86.13828188 -0.94088495 C89.43003683 -0.95387871 92.71896695 -0.98951931 96.01011467 -1.05730057 C99.69293309 -1.13011855 103.37101867 -1.13988285 107.05444336 -1.13525391 C108.67501396 -1.18918304 108.67501396 -1.18918304 110.32832336 -1.24420166 C115.08959658 -1.17963192 117.9036074 -0.90830369 121.6447773 2.19105911 C123.92690203 4.70452824 125.98790812 7.26785707 128 10 C128.88381397 11.06299174 129.77306589 12.12153184 130.671875 13.171875 C132.11317867 14.9599585 133.54622037 16.75472096 134.97265625 18.5546875 C136.85616968 20.94729833 136.85616968 20.94729833 138.74609375 22.5703125 C140.1875 23.875 140.1875 23.875 142 27 C141.73950195 30.14892578 141.73950195 30.14892578 141.11328125 33.6953125 C140.91130127 34.87367676 140.70932129 36.05204102 140.5012207 37.26611328 C140.33581787 38.1682959 140.17041504 39.07047852 140 40 C134.7345117 39.59346208 129.46922412 39.18444108 124.20410156 38.77319336 C122.41574221 38.63385117 120.62733134 38.49516841 118.83886719 38.35717773 C116.25702056 38.15785457 113.67537312 37.95610132 111.09375 37.75390625 C109.90888 37.66321617 109.90888 37.66321617 108.70007324 37.57069397 C106.46528701 37.39434528 104.23287112 37.19897026 102 37 C101.26112549 36.9458493 100.52225098 36.89169861 99.76098633 36.83590698 C94.32701915 36.33984766 94.32701915 36.33984766 92.51879883 34.46069336 C89.86629039 31.9096633 86.18836355 32.60137896 82.69921875 32.62890625 C80.94018194 32.61436263 79.18114882 32.59936713 77.42211914 32.58398438 C76.02124557 32.57951294 76.02124557 32.57951294 74.59207153 32.57495117 C56.83788032 32.49884339 39.24196359 31.60851019 21.5625 30 C20.56133148 29.91009796 19.56016296 29.82019592 18.52865601 29.72756958 C15.68649028 29.47004288 12.84504192 29.20613778 10.00390625 28.9375 C9.16310516 28.85833847 8.32230408 28.77917694 7.45602417 28.69761658 C3.58255347 28.31621 -0.1976632 27.86636735 -4 27 C-3.63464793 20.23468752 -2.84099814 13.6906913 -1.45703125 7.06640625 C-1.31704712 6.38227661 -1.17706299 5.69814697 -1.03283691 4.99328613 C-0.69167567 3.32821558 -0.34628475 1.66401257 0 0 Z " fill="#00FECC" transform="translate(728,185)"/>
<path d="M0 0 C-4.38676756 8.86191955 -8.84041364 17.68237486 -13.4375 26.4375 C-14.09274658 27.6891394 -14.09274658 27.6891394 -14.76123047 28.96606445 C-15.37248779 30.12561646 -15.37248779 30.12561646 -15.99609375 31.30859375 C-16.35888428 31.99751709 -16.7216748 32.68644043 -17.09545898 33.39624023 C-18 35 -18 35 -19 36 C-22.01350238 36.09529612 -25.00404106 36.12551904 -28.01782227 36.11352539 C-28.96406464 36.11367142 -29.91030701 36.11381744 -30.88522339 36.1139679 C-34.02897392 36.11326836 -37.17266601 36.10547409 -40.31640625 36.09765625 C-42.48974068 36.09579221 -44.66307552 36.09436824 -46.83641052 36.09336853 C-52.56901195 36.08954221 -58.30158823 36.07971097 -64.03417969 36.06866455 C-69.87890279 36.05845287 -75.72362993 36.05387143 -81.56835938 36.04882812 C-93.045584 36.0380888 -104.52278991 36.02101102 -116 36 C-116.84097414 31.77231562 -117.67144025 27.54263344 -118.5 23.3125 C-118.73847656 22.11431641 -118.97695313 20.91613281 -119.22265625 19.68164062 C-119.44824219 18.52470703 -119.67382812 17.36777344 -119.90625 16.17578125 C-120.11572266 15.11270752 -120.32519531 14.04963379 -120.54101562 12.9543457 C-120.96252805 10.24119577 -121.08856503 7.73887341 -121 5 C-117.66077542 4.26378807 -114.49756342 3.84643551 -111.08178711 3.73461914 C-110.12146072 3.70103806 -109.16113434 3.66745697 -108.17170715 3.63285828 C-106.61524727 3.58449577 -106.61524727 3.58449577 -105.02734375 3.53515625 C-103.9322197 3.49755692 -102.83709564 3.45995758 -101.70878601 3.42121887 C-99.3484154 3.34038234 -96.98798429 3.26129737 -94.62750244 3.18377686 C-88.39329244 2.97888122 -82.15952192 2.76162425 -75.92578125 2.54296875 C-74.66715271 2.49895935 -73.40852417 2.45494995 -72.11175537 2.40960693 C-58.51953114 1.92588463 -44.93480011 1.2938102 -31.35131836 0.60961914 C-20.89092654 0.09566907 -10.47274357 -0.10636512 0 0 Z " fill="#03FECD" transform="translate(523,334)"/>
<path d="M0 0 C46.86 0 93.72 0 142 0 C140.875 10.125 140.875 10.125 140.24609375 13.59765625 C140.11396484 14.33564453 139.98183594 15.07363281 139.84570312 15.83398438 C139.64364258 16.93709961 139.64364258 16.93709961 139.4375 18.0625 C139.29892578 18.83271484 139.16035156 19.60292969 139.01757812 20.39648438 C138.6810484 22.26480455 138.34091445 24.13247494 138 26 C123.65945231 26.51880674 109.46941035 24.95490967 95.20703125 23.62890625 C92.52531059 23.38348789 89.84342225 23.13992307 87.1615448 22.89622498 C81.57105297 22.38715749 75.98105548 21.87293152 70.39135742 21.35522461 C63.93591865 20.75737113 57.47986953 20.16651628 51.02342778 19.57959992 C44.78515051 19.01246553 38.54720975 18.44171962 32.30945396 17.86887932 C29.6640868 17.62613726 27.01865158 17.38413568 24.37314796 17.14288521 C20.68962408 16.80621641 17.0065101 16.46538182 13.32348633 16.12329102 C12.22999374 16.02402817 11.13650116 15.92476532 10.00987244 15.82249451 C9.00793854 15.72856415 8.00600464 15.63463379 6.97370911 15.53785706 C6.10458295 15.45766107 5.23545679 15.37746508 4.33999348 15.29483891 C2.15797405 15.01990471 0.11772999 14.58471967 -2 14 C-1.85866501 12.22880197 -1.71176792 10.45804713 -1.5625 8.6875 C-1.48128906 7.70136719 -1.40007813 6.71523437 -1.31640625 5.69921875 C-1 3 -1 3 0 0 Z " fill="#02FECC" transform="translate(584,185)"/>
<path d="M0 0 C14.80089411 -0.14591091 29.50608312 0.27994496 44.28515625 1.05859375 C46.44597834 1.16870848 48.60682175 1.2784053 50.76768494 1.38771057 C55.2527678 1.61566002 59.73765421 1.84704445 64.22241211 2.08129883 C69.94085377 2.37993333 75.65959989 2.67215701 81.37848759 2.96211147 C85.82346738 3.18777665 90.26833364 3.41561268 94.71316338 3.64421272 C96.82166018 3.75262612 98.93017651 3.86066048 101.03871346 3.96829033 C121.98093987 5.04132572 121.98093987 5.04132572 132 6 C132 6.66 132 7.32 132 8 C103.95 8 75.9 8 47 8 C46.34 13.28 45.68 18.56 45 24 C44.32626531 28.01290152 43.63465777 32.00476283 42.875 36 C42.69324219 36.97710937 42.51148438 37.95421875 42.32421875 38.9609375 C41.88700008 41.30811139 41.44563568 43.65441248 41 46 C24.65673445 46.74206833 8.36021265 47.15283326 -8 47 C-6.59385955 36.47804594 -4.80556005 26.06058384 -2.875 15.625 C-2.59480123 14.09900437 -2.314852 12.5729629 -2.03515625 11.046875 C-1.36008996 7.36396898 -0.68030205 3.68194233 0 0 Z " fill="#FEFEFE" transform="translate(566,285)"/>
<path d="M0 0 C1.18797432 0.00212242 1.18797432 0.00212242 2.39994812 0.00428772 C4.91641094 0.00986168 7.43278306 0.02240932 9.94921875 0.03515625 C11.660806 0.04017462 13.37239466 0.04473694 15.08398438 0.04882812 C19.26826383 0.05982257 23.45247594 0.07706918 27.63671875 0.09765625 C26.28742326 9.90114609 24.75363873 19.65756009 23.07421875 29.41015625 C22.85083694 30.73501348 22.62752937 32.05988323 22.40429688 33.38476562 C22.19095703 34.62677734 21.97761719 35.86878906 21.7578125 37.1484375 C21.47055298 38.82933472 21.47055298 38.82933472 21.17749023 40.54418945 C20.63671875 43.09765625 20.63671875 43.09765625 19.63671875 44.09765625 C16.67966554 44.18633924 13.74606819 44.21285921 10.7890625 44.1953125 C9.45942223 44.19319008 9.45942223 44.19319008 8.10292053 44.19102478 C5.25998621 44.1854084 2.41712944 44.17285316 -0.42578125 44.16015625 C-2.34830616 44.15514336 -4.27083229 44.15058009 -6.19335938 44.14648438 C-10.91669674 44.13543366 -15.63997583 44.11815808 -20.36328125 44.09765625 C-19.79083563 34.72087124 -18.08404329 25.61219949 -16.30078125 16.41015625 C-16.01579294 14.91871202 -15.73128436 13.42717604 -15.44726562 11.93554688 C-14.75812227 8.32184388 -14.06252783 4.70941963 -13.36328125 1.09765625 C-8.91000488 -0.0147006 -4.55879352 -0.03089246 0 0 Z " fill="#00FECC" transform="translate(716.36328125,325.90234375)"/>
<path d="M0 0 C-1.63861851 5.9166884 -4.58352828 10.99154539 -7.5625 16.3125 C-8.06974609 17.23095703 -8.57699219 18.14941406 -9.09960938 19.09570312 C-12.84700737 25.84700737 -12.84700737 25.84700737 -14 27 C-17.46816196 27.2747379 -20.96001803 27.18960025 -24.4375 27.1875 C-25.54593262 27.18814453 -26.65436523 27.18878906 -27.79638672 27.18945312 C-45.87879148 27.08332723 -63.94716422 25.96268136 -82 25 C-83.63204491 20.04522891 -82.18005109 16.41345213 -80.5625 11.6875 C-80.31951172 10.94693359 -80.07652344 10.20636719 -79.82617188 9.44335938 C-79.22800422 7.62539885 -78.61542141 5.81219245 -78 4 C-72.52741402 3.587889 -67.05458907 3.17914805 -61.58154297 2.77319336 C-59.72959007 2.63539069 -57.87769906 2.49675299 -56.02587891 2.35717773 C-46.10541915 1.61004142 -36.18586478 0.91512154 -26.25 0.40625 C-25.46195984 0.3650856 -24.67391968 0.3239212 -23.86199951 0.2815094 C-15.90857535 -0.10444542 -7.96043233 -0.09280297 0 0 Z " fill="#02FECD" transform="translate(564,256)"/>
<path d="M0 0 C17.39223032 0.73076598 34.67564456 2.35175961 52 4 C52 4.33 52 4.66 52 5 C48.04 5 44.08 5 40 5 C39.81824219 6.54107422 39.81824219 6.54107422 39.6328125 8.11328125 C36.86939825 31.13060175 36.86939825 31.13060175 35 33 C31.97357046 33.23192272 28.96489148 33.40397845 25.93359375 33.53515625 C25.02497086 33.57813339 24.11634796 33.62111053 23.18019104 33.66539001 C20.26614738 33.80219627 17.35185067 33.93241431 14.4375 34.0625 C12.46677678 34.15386446 10.49607329 34.24565566 8.52539062 34.33789062 C3.6838273 34.56436072 -1.15802167 34.78193102 -6 35 C-4.02 23.45 -2.04 11.9 0 0 Z " fill="#FDFEFE" transform="translate(723,212)"/>
<path d="M0 0 C0 5.61 0 11.22 0 17 C-11.66983836 17.10296916 -23.26412579 16.76975563 -34.91943359 16.20043945 C-37.75989476 16.06201781 -40.6006019 15.92999854 -43.44140625 15.79882812 C-52.6479274 15.36548441 -61.82146486 14.85185401 -71 14 C-71.66 10.37 -72.32 6.74 -73 3 C-65.97939859 2.56456599 -58.95833935 2.13775818 -51.93676758 1.71826172 C-49.55804992 1.57500988 -47.17946256 1.42957412 -44.80102539 1.28173828 C-29.84593071 0.35394806 -14.98459658 -0.21747449 0 0 Z " fill="#06FECE" transform="translate(461,262)"/>
<path d="M0 0 C-0.74810561 4.67566006 -1.79516523 7.31921508 -5.4296875 10.44677734 C-10.59425854 13.93393537 -15.12475978 13.48023691 -21.125 12.8515625 C-22.20571274 12.76504425 -23.28642548 12.678526 -24.39988708 12.58938599 C-27.93665876 12.29884157 -31.4674028 11.96224504 -35 11.625 C-37.44773943 11.41525397 -39.89574405 11.20858162 -42.34399414 11.00488281 C-47.38356013 10.5804567 -52.42096507 10.13747684 -57.45751953 9.67871094 C-64.73797438 9.01752259 -72.02207603 8.41046846 -79.30859375 7.8203125 C-90.54148937 6.90775657 -101.77150516 5.96512455 -113 5 C-110.17423271 2.17423271 -108.20818609 2.65114462 -104.24414062 2.49755859 C-103.54743759 2.46800583 -102.85073456 2.43845306 -102.13291931 2.40800476 C-99.80763499 2.31196155 -97.48208576 2.2299525 -95.15625 2.1484375 C-93.51417555 2.08468344 -91.87212662 2.02026918 -90.23010254 1.95523071 C-86.75988246 1.8198889 -83.28949722 1.69121157 -79.81884766 1.56738281 C-75.480092 1.41228195 -71.14201919 1.24347805 -66.80397034 1.06985092 C-44.52695727 0.18393288 -22.29393207 -0.1962784 0 0 Z " fill="#08FECF" transform="translate(365,341)"/>
<path d="M0 0 C24.3988201 1.28503834 48.69763078 3.30594476 73.02587891 5.54492188 C79.45287499 6.13514214 85.88224606 6.69640892 92.3125 7.25 C93.23627441 7.32992188 94.16004883 7.40984375 95.11181641 7.4921875 C97.07450324 7.66193339 99.03724319 7.8310651 101 8 C100.34 9.32 99.68 10.64 99 12 C66.99 12 34.98 12 2 12 C1.34 8.04 0.68 4.08 0 0 Z " fill="#FDFEFE" transform="translate(405,358)"/>
<path d="M0 0 C24.09 0 48.18 0 73 0 C72 12 72 12 71 13 C61.88837975 13.45197369 52.81110398 12.8126516 43.7421875 11.9765625 C42.55070099 11.87032562 41.35921448 11.76408875 40.13162231 11.65463257 C37.64247585 11.43078368 35.15361329 11.20375624 32.66503906 10.97363281 C28.85049343 10.62274572 25.03478162 10.28741875 21.21875 9.953125 C18.78897784 9.73270208 16.35928699 9.51138055 13.9296875 9.2890625 C12.79119354 9.19001617 11.65269958 9.09096985 10.47970581 8.98892212 C9.42405426 8.88896942 8.36840271 8.78901672 7.28076172 8.68603516 C6.35480194 8.60165192 5.42884216 8.51726868 4.474823 8.43032837 C1.97513401 7.99567624 0.19028254 7.25534678 -2 6 C-1.34 4.02 -0.68 2.04 0 0 Z " fill="#04FECD" transform="translate(507,185)"/>
<path d="M0 0 C10.7016389 -0.17291697 21.32089373 0.36850058 32 1 C31.69055299 3.58373234 31.37756043 6.16695133 31.0625 8.75 C30.97548828 9.47960937 30.88847656 10.20921875 30.79882812 10.9609375 C30.37744388 14.39443878 29.84064882 17.63740472 29 21 C12.665 21.495 12.665 21.495 -4 22 C-1.75 6.25 -1.75 6.25 0 0 Z " fill="#FDFEFE" transform="translate(858,299)"/>
<path d="M0 0 C10.50903787 0.51001716 21.00693583 1.16527334 31.5 1.9375 C32.60400146 2.01210449 33.70800293 2.08670898 34.84545898 2.16357422 C35.87614502 2.24236816 36.90683105 2.32116211 37.96875 2.40234375 C39.35223633 2.50276978 39.35223633 2.50276978 40.76367188 2.60522461 C43 3 43 3 45 5 C44.79296875 7.56640625 44.79296875 7.56640625 44.1875 10.5625 C43.89939453 12.04943359 43.89939453 12.04943359 43.60546875 13.56640625 C43 16 43 16 42 17 C38.71044646 17.52905863 35.38006833 17.76531381 32.0625 18.0625 C31.08007324 18.15192871 30.09764648 18.24135742 29.08544922 18.33349609 C20.04113387 19.09946892 11.06876311 19.20152807 2 19 C2.10699219 18.04738281 2.21398437 17.09476563 2.32421875 16.11328125 C2.50404297 14.23189453 2.50404297 14.23189453 2.6875 12.3125 C2.81511719 11.07113281 2.94273437 9.82976562 3.07421875 8.55078125 C2.99375562 4.70125554 2.26578663 3.04628897 0 0 Z " fill="#FCFEFE" transform="translate(823,221)"/>
<path d="M0 0 C2.88264871 -0.16638846 5.52786242 -0.14097014 8.39697266 0.02661133 C9.26533249 0.06518753 10.13369232 0.10376373 11.02836609 0.14350891 C13.90782726 0.27508119 16.78569594 0.42849035 19.6640625 0.58203125 C21.65654231 0.67734174 23.64908753 0.77129369 25.64169312 0.86393738 C30.8933113 1.11177894 36.14383543 1.37812675 41.39434814 1.64825439 C46.74934215 1.92050107 52.10516022 2.17535251 57.4609375 2.43164062 C67.97484159 2.9373428 78.48767248 3.46258675 89 4 C86.42233706 6.57766294 85.32489729 6.29103803 81.734375 6.39477539 C80.6314209 6.43143814 79.5284668 6.46810089 78.39208984 6.50587463 C77.1902002 6.53616257 75.98831055 6.5664505 74.75 6.59765625 C73.50814941 6.63684677 72.26629883 6.67603729 70.98681641 6.71641541 C67.66642506 6.81981397 64.34600745 6.915113 61.02526855 7.00616455 C55.14148235 7.16982963 49.2582978 7.35495796 43.375 7.53515625 C42.11658295 7.57263474 40.85816589 7.61011322 39.56161499 7.64872742 C31.27205124 7.90319473 23.00126681 8.27564832 14.72509766 8.80810547 C8.48343764 9.12963809 2.24825288 9.08294141 -4 9 C-2.94124926 5.59687262 -1.99097846 2.98646769 0 0 Z " fill="#F8FEFE" transform="translate(1007,306)"/>
<path d="M0 0 C-0.33 2.97 -0.66 5.94 -1 9 C-10.22799667 9.09137408 -19.39840893 8.82093626 -28.61328125 8.34375 C-29.96232213 8.27620721 -31.31137744 8.20895208 -32.66044617 8.14196777 C-36.163753 7.96726507 -39.66685365 7.78872911 -43.16992188 7.60931396 C-46.76355254 7.42596755 -50.3573699 7.24635774 -53.95117188 7.06640625 C-60.96763192 6.71453453 -67.98388039 6.35860114 -75 6 C-75 5.34 -75 4.68 -75 4 C-73.98091553 3.9498877 -72.96183105 3.89977539 -71.91186523 3.84814453 C-52.76055215 2.9027918 -33.61673967 1.91414428 -14.48608398 0.60986328 C-13.30216064 0.52978027 -12.1182373 0.44969727 -10.8984375 0.3671875 C-9.87411621 0.29612793 -8.84979492 0.22506836 -7.79443359 0.15185547 C-5.18920106 0.01028159 -2.60837299 -0.02808557 0 0 Z " fill="#11FED2" transform="translate(378,266)"/>
<path d="M0 0 C4.18769789 0.14129347 8.37509861 0.28787019 12.5625 0.4375 C14.33463867 0.49647461 14.33463867 0.49647461 16.14257812 0.55664062 C21.83013123 0.7637504 27.38995814 1.01968432 33 2 C32.34 4.97 31.68 7.94 31 11 C27.22528434 11.94367892 24.34659165 12.11521178 20.484375 12.09765625 C19.23398437 12.09443359 17.98359375 12.09121094 16.6953125 12.08789062 C14.74238281 12.07532227 14.74238281 12.07532227 12.75 12.0625 C10.77386719 12.05573242 10.77386719 12.05573242 8.7578125 12.04882812 C5.50518896 12.03704326 2.25258876 12.0191079 -1 12 C-0.67 8.04 -0.34 4.08 0 0 Z " fill="#FAFEFE" transform="translate(967,304)"/>
<path d="M0 0 C15.84 1.485 15.84 1.485 32 3 C31.67 5.64 31.34 8.28 31 11 C27.18803848 11.33968421 23.3753608 11.67057595 19.5625 12 C18.49322266 12.09539062 17.42394531 12.19078125 16.32226562 12.2890625 C10.18697229 12.81440872 4.15747494 13.10359579 -2 13 C-1.85915204 11.20793453 -1.71216299 9.41635083 -1.5625 7.625 C-1.48128906 6.62726563 -1.40007813 5.62953125 -1.31640625 4.6015625 C-1 2 -1 2 0 0 Z " fill="#FCFEFE" transform="translate(871,225)"/>
<path d="M0 0 C6.93 0 13.86 0 21 0 C20.67 0.99 20.34 1.98 20 3 C13.25766581 3.12910853 6.69613196 2.797837 0 2 C0 1.34 0 0.68 0 0 Z " fill="#1CFED6" transform="translate(444,185)"/>
<path d="M0 0 C0.78552246 0.01047363 1.57104492 0.02094727 2.38037109 0.03173828 C3.23115234 0.03818359 4.08193359 0.04462891 4.95849609 0.05126953 C6.29267578 0.07640625 6.29267578 0.07640625 7.65380859 0.10205078 C8.99958984 0.11558594 8.99958984 0.11558594 10.37255859 0.12939453 C12.59157445 0.15300108 14.81005937 0.18592768 17.02880859 0.22705078 C17.02880859 1.21705078 17.02880859 2.20705078 17.02880859 3.22705078 C10.09880859 2.89705078 3.16880859 2.56705078 -3.97119141 2.22705078 C-1.97119141 0.22705078 -1.97119141 0.22705078 0 0 Z " fill="#32FDDE" transform="translate(255.97119140625,343.77294921875)"/>
</svg>
