<?xml version="1.0" standalone="no"?>
<!DOCTYPE svg PUBLIC "-//W3C//DTD SVG 20010904//EN"
 "http://www.w3.org/TR/2001/REC-SVG-20010904/DTD/svg10.dtd">
<svg version="1.0" xmlns="http://www.w3.org/2000/svg"
 width="512.000000pt" height="512.000000pt" viewBox="0 0 512.000000 512.000000"
 preserveAspectRatio="xMidYMid meet">

<g transform="translate(0.000000,512.000000) scale(0.100000,-0.100000)"
fill="#000000" stroke="none">
<path d="M0 2560 l0 -2560 2560 0 2560 0 0 2560 0 2560 -2560 0 -2560 0 0
-2560z m2846 2394 c439 -52 856 -218 1199 -477 44 -33 82 -63 85 -67 3 -4 28
-11 57 -16 50 -9 60 -16 287 -233 164 -156 236 -231 235 -245 0 -12 -4 -52 -8
-91 -8 -69 -7 -71 35 -151 120 -226 205 -479 256 -761 20 -112 22 -161 22
-388 0 -226 -3 -276 -23 -385 -44 -247 -130 -509 -232 -712 -105 -210 -284
-455 -445 -613 -70 -68 -173 -161 -204 -185 -19 -14 -38 -30 -44 -36 -6 -6
-54 -39 -106 -74 -52 -34 -107 -70 -121 -80 -36 -25 -326 -168 -363 -179 -17
-5 -61 -20 -98 -34 -274 -102 -644 -151 -960 -129 -252 18 -451 61 -693 149
-272 99 -575 283 -779 473 -26 25 -59 49 -72 55 -13 5 -128 114 -255 240 -231
230 -231 230 -220 261 24 66 14 125 -39 235 -86 182 -165 446 -202 679 -21
135 -18 587 6 720 63 365 181 673 364 954 43 66 99 144 113 156 3 3 18 23 35
45 96 131 302 328 460 441 297 212 633 357 974 419 74 14 173 29 220 34 123
13 387 10 516 -5z"/>
<path d="M2370 4764 c-14 -2 -63 -9 -110 -15 -47 -6 -141 -25 -210 -41 -726
-176 -1339 -733 -1586 -1442 -82 -236 -113 -411 -121 -691 -8 -284 17 -464
104 -745 25 -80 27 -83 35 -55 24 87 57 262 183 988 15 85 37 211 55 312 5 28
19 104 30 170 11 66 25 145 31 175 5 30 14 80 19 110 5 30 14 82 20 115 20
111 30 170 36 228 l7 57 181 127 c100 70 245 174 324 230 l142 103 1123 1
c617 0 1139 3 1159 7 l37 7 -132 75 c-245 138 -461 216 -742 267 -76 13 -528
27 -585 17z"/>
<path d="M2623 3698 c-6 -7 -13 -31 -16 -53 -3 -22 -13 -79 -21 -127 -9 -49
-23 -127 -32 -175 -8 -49 -19 -110 -24 -138 -5 -27 -19 -104 -30 -170 -11 -66
-25 -144 -30 -172 -6 -29 -14 -77 -20 -105 -5 -29 -19 -107 -30 -173 -11 -66
-25 -144 -30 -172 -15 -82 -27 -150 -45 -248 -8 -49 -24 -137 -35 -195 -10
-58 -33 -186 -50 -285 -17 -99 -34 -190 -37 -202 -5 -23 -5 -23 125 -23 72 0
133 4 136 9 6 10 23 93 55 281 28 160 57 326 81 458 6 31 15 82 20 112 5 30
14 81 20 113 5 31 15 82 20 112 6 30 15 81 20 113 6 31 15 82 20 112 5 30 14
81 20 113 34 187 56 311 95 532 8 44 21 118 29 165 26 142 36 130 -108 130
-87 0 -126 -4 -133 -12z"/>
<path d="M4627 3403 c-17 -90 -101 -539 -122 -653 -13 -74 -34 -191 -45 -260
-23 -134 -55 -322 -70 -407 -6 -29 -15 -79 -20 -110 -6 -32 -15 -83 -20 -113
-5 -30 -14 -81 -20 -112 -5 -32 -15 -84 -20 -115 -6 -32 -15 -83 -20 -113 -5
-30 -14 -80 -20 -110 -6 -30 -15 -80 -21 -110 -5 -30 -15 -60 -22 -67 -14 -14
-107 -82 -395 -289 -111 -80 -205 -150 -208 -155 -3 -5 -495 -9 -1168 -9 -640
0 -1191 -3 -1225 -6 -52 -6 -58 -9 -42 -18 11 -6 75 -48 143 -94 122 -83 332
-194 438 -231 30 -11 75 -27 100 -36 59 -22 135 -42 249 -65 515 -108 1057
-33 1512 210 301 161 598 424 794 706 36 51 65 96 65 100 0 4 6 15 14 23 23
26 120 219 159 316 207 522 217 1092 27 1619 -45 124 -55 140 -63 99z"/>
</g>
</svg>
