<?xml version="1.0" standalone="no"?>
<!DOCTYPE svg PUBLIC "-//W3C//DTD SVG 20010904//EN"
 "http://www.w3.org/TR/2001/REC-SVG-20010904/DTD/svg10.dtd">
<svg version="1.0" xmlns="http://www.w3.org/2000/svg"
 width="512.000000pt" height="512.000000pt" viewBox="0 0 512.000000 512.000000"
 preserveAspectRatio="xMidYMid meet">

<g transform="translate(0.000000,512.000000) scale(0.100000,-0.100000)"
fill="#000000" stroke="none">
<path d="M2280 4754 c-562 -79 -1094 -383 -1451 -830 -196 -246 -347 -550
-424 -853 -47 -186 -59 -298 -60 -546 0 -294 19 -426 102 -695 37 -118 22
-180 218 935 15 83 36 200 46 260 11 61 29 162 40 225 11 63 24 140 30 170 5
30 14 80 19 110 5 30 14 82 20 115 20 111 30 170 36 228 l7 57 181 127 c100
70 245 174 324 230 l142 103 1133 1 c622 1 1146 5 1162 9 17 4 24 8 17 9 -7 0
-32 14 -55 30 -54 36 -232 129 -317 164 -156 64 -314 110 -495 143 -128 23
-533 28 -675 8z"/>
<path d="M2623 3698 c-6 -7 -13 -31 -16 -53 -3 -22 -13 -79 -21 -127 -9 -49
-23 -127 -32 -175 -8 -49 -19 -110 -24 -138 -5 -27 -19 -104 -30 -170 -11 -66
-25 -144 -30 -172 -6 -29 -14 -77 -20 -105 -5 -29 -19 -107 -30 -173 -11 -66
-25 -144 -30 -172 -15 -82 -27 -150 -45 -248 -8 -49 -24 -137 -35 -195 -10
-58 -33 -186 -50 -285 -17 -99 -34 -190 -37 -202 -5 -23 -5 -23 125 -23 72 0
133 4 136 9 6 10 23 93 55 281 28 160 57 326 81 458 6 31 15 82 20 112 5 30
14 81 20 113 5 31 15 82 20 112 6 30 14 79 20 108 5 28 19 106 30 172 11 66
25 144 30 173 18 96 45 246 75 417 8 44 21 118 29 165 26 142 36 130 -108 130
-87 0 -126 -4 -133 -12z"/>
<path d="M4627 3403 c-13 -69 -99 -532 -122 -653 -13 -74 -34 -191 -45 -260
-23 -134 -55 -322 -70 -407 -6 -29 -15 -79 -20 -110 -6 -32 -15 -83 -20 -113
-5 -30 -14 -81 -20 -112 -24 -132 -30 -168 -50 -278 -12 -63 -25 -140 -31
-170 -5 -30 -15 -60 -22 -67 -14 -14 -107 -82 -395 -289 -111 -80 -205 -150
-208 -155 -3 -5 -502 -9 -1182 -10 -647 0 -1199 -4 -1227 -9 -27 -4 -44 -8
-36 -9 8 0 51 -27 95 -59 595 -430 1357 -537 2066 -291 116 41 346 155 455
226 256 168 499 409 667 663 374 565 467 1315 243 1960 -36 102 -63 170 -69
170 -2 0 -6 -12 -9 -27z"/>
</g>
</svg>
